<svg width="23" height="28" viewBox="0 0 23 28" fill="none" xmlns="http://www.w3.org/2000/svg">
<path d="M13.1088 3L19.75 9.64125V25H3.25V3H13.1088ZM14.25 0.25H3.25C1.7375 0.25 0.5 1.4875 0.5 3V25C0.5 26.5125 1.7375 27.75 3.25 27.75H19.75C21.2625 27.75 22.5 26.5125 22.5 25V8.5L14.25 0.25ZM11.5 16.75C13.0125 16.75 14.25 15.5125 14.25 14C14.25 12.4875 13.0125 11.25 11.5 11.25C9.9875 11.25 8.75 12.4875 8.75 14C8.75 15.5125 9.9875 16.75 11.5 16.75ZM17 21.4663C17 20.3525 16.34 19.3625 15.3225 18.9225C14.1168 18.3963 12.8155 18.1247 11.5 18.1247C10.1845 18.1247 8.88317 18.3963 7.6775 18.9225C7.17935 19.1354 6.75477 19.4901 6.45652 19.9423C6.15828 20.3946 5.99953 20.9245 6 21.4663V22.25H17V21.4663Z" fill="#FC8537"/>
</svg>
