<svg width="22" height="20" viewBox="0 0 22 20" fill="none" xmlns="http://www.w3.org/2000/svg">
<path d="M11 17.865H13V4.86504L19.394 7.60504C19.574 7.6822 19.7274 7.81052 19.8351 7.97407C19.9428 8.13762 20.0002 8.3292 20 8.52504V17.865H22V19.865H0V17.865H2V4.51504C1.99998 4.32156 2.05608 4.13222 2.16151 3.96999C2.26695 3.80776 2.41718 3.6796 2.594 3.60104L10.297 0.178043C10.3731 0.144221 10.4565 0.129957 10.5395 0.136546C10.6226 0.143135 10.7027 0.170368 10.7725 0.215771C10.8424 0.261175 10.8998 0.323309 10.9395 0.39653C10.9792 0.469752 11 0.551738 11 0.635043V17.865Z" fill="#FC8537"/>
</svg>
