<svg width="38" height="39" viewBox="0 0 38 39" fill="none" xmlns="http://www.w3.org/2000/svg">
<path d="M5.83625 5.85768C7.5709 4.09942 9.63664 2.70546 11.9131 1.75703C14.1895 0.8086 16.6312 0.324673 19.0957 0.333445C29.4228 0.333445 37.8392 8.78367 37.8487 19.1576C37.8487 22.4803 36.9831 25.7126 35.3491 28.5745L38 38.3333L28.0583 35.7161C25.3081 37.2192 22.2269 38.0071 19.0957 38.008H19.0863C8.75679 38.008 0.3428 29.5577 0.33334 19.1743C0.330975 16.6996 0.816196 14.249 1.76105 11.9635C2.70589 9.67802 4.08933 7.6029 5.83625 5.85768ZM19.0957 34.8207C21.8886 34.8217 24.6301 34.0669 27.032 32.6357L27.5996 32.2937L33.4974 33.847L31.9224 28.0686L32.2914 27.4725C33.8526 24.9795 34.6783 22.0932 34.6727 19.1481C34.6727 10.5364 27.68 3.51119 19.0863 3.51119C17.039 3.5075 15.0112 3.91084 13.1198 4.69795C11.2284 5.48506 9.51093 6.64038 8.06626 8.0973C6.61656 9.54853 5.4673 11.2737 4.68476 13.1732C3.90223 15.0727 3.50192 17.1091 3.50691 19.1648C3.51637 27.8074 10.5091 34.8207 19.0957 34.8207ZM10.5469 23.1025C11.0128 22.8674 13.3138 21.7298 13.7465 21.5683C14.1769 21.4139 14.4914 21.3331 14.7989 21.8034C15.1134 22.2713 16.012 23.3376 16.2816 23.644C16.5512 23.9599 16.8302 23.9955 17.2985 23.7627C17.7643 23.5252 19.2755 23.0312 21.0632 21.4234C22.4585 20.1765 23.3926 18.6328 23.6716 18.1649C23.9412 17.6946 23.6976 17.4429 23.4635 17.2078C23.2578 16.9988 22.9977 16.6568 22.7635 16.386C22.5271 16.1153 22.449 15.9158 22.2953 15.6023C22.1416 15.284 22.2149 15.0133 22.3308 14.7781C22.449 14.543 23.3831 12.2227 23.778 11.2869C24.1564 10.363 24.5419 10.4913 24.8304 10.4794C25.1 10.4628 25.4145 10.4628 25.729 10.4628C25.9665 10.4687 26.2003 10.5239 26.4155 10.6248C26.6308 10.7258 26.823 10.8703 26.98 11.0494C27.4104 11.5197 28.6141 12.6573 28.6141 14.9776C28.6141 17.298 26.9351 19.5281 26.6986 19.844C26.4668 20.1599 23.402 24.9075 18.6984 26.95C17.587 27.4369 16.712 27.7242 16.0286 27.9427C14.9053 28.3037 13.8908 28.2491 13.082 28.1327C12.1834 27.995 10.3128 26.9927 9.91791 25.8931C9.53008 24.7911 9.53008 23.8506 9.64832 23.6535C9.76419 23.454 10.0787 23.3376 10.5469 23.1025Z" fill="black"/>
</svg>
